<?xml version="1.0" encoding="UTF-8" standalone="no"?>
<!-- Created with Inkscape (http://www.inkscape.org/) -->

<svg
   version="1.1"
   id="svg1"
   width="1152"
   height="1258.6667"
   viewBox="40 320 1000 1200"
   sodipodi:docname="image_map_labeled.svg"
   inkscape:version="1.4.2 (2aeb623e1d, 2025-05-12)"
   xmlns:inkscape="http://www.inkscape.org/namespaces/inkscape"
   xmlns:sodipodi="http://sodipodi.sourceforge.net/DTD/sodipodi-0.dtd"
   xmlns="http://www.w3.org/2000/svg"
   xmlns:svg="http://www.w3.org/2000/svg">
  <sodipodi:namedview
     id="namedview1"
     pagecolor="#ffffff"
     bordercolor="#000000"
     borderopacity="0.25"
     inkscape:showpageshadow="2"
     inkscape:pageopacity="0.0"
     inkscape:pagecheckerboard="0"
     inkscape:deskcolor="#d1d1d1"
     inkscape:zoom="0.94156056"
     inkscape:cx="554.92979"
     inkscape:cy="442.88176"
     inkscape:window-width="1920"
     inkscape:window-height="1011"
     inkscape:window-x="0"
     inkscape:window-y="32"
     inkscape:window-maximized="1"
     inkscape:current-layer="svg1" />
  <defs
     id="defs1">
    <inkscape:path-effect
       effect="bspline"
       id="path-effect20"
       is_visible="true"
       lpeversion="1.3"
       weight="33.333333"
       steps="2"
       helper_size="0"
       apply_no_weight="true"
       apply_with_weight="true"
       only_selected="false"
       uniform="false" />
    <inkscape:path-effect
       effect="powerstroke"
       message=""
       id="path-effect14"
       is_visible="true"
       lpeversion="1.3"
       scale_width="1"
       interpolator_type="CubicBezierJohan"
       interpolator_beta="0.2"
       start_linecap_type="zerowidth"
       end_linecap_type="zerowidth"
       offset_points="0,16.378407"
       linejoin_type="extrp_arc"
       miter_limit="4"
       not_jump="false"
       sort_points="true" />
    <inkscape:path-effect
       effect="bspline"
       id="path-effect13"
       is_visible="true"
       lpeversion="1.3"
       weight="33.333333"
       steps="2"
       helper_size="0"
       apply_no_weight="true"
       apply_with_weight="true"
       only_selected="false"
       uniform="false" />
    <inkscape:path-effect
       effect="bspline"
       id="path-effect12"
       is_visible="true"
       lpeversion="1.3"
       weight="33.333333"
       steps="2"
       helper_size="0"
       apply_no_weight="true"
       apply_with_weight="true"
       only_selected="false"
       uniform="false" />
    <inkscape:path-effect
       effect="fill_between_many"
       method="bsplinespiro"
       autoreverse="false"
       close="false"
       join="false"
       linkedpaths="#path13,0,1"
       id="path-effect15" />
  </defs>
  <rect
     style="fill:#cccccc;fill-opacity:1;stroke:none;stroke-width:1.90678;stroke-dasharray:none;stroke-opacity:1"
     id="rect25"
     width="1098.6312"
     height="863.71667"
     x="-9.1525068"
     y="316.96231"
     transform="translate(2.0110496e-8)" />
  <g
     id="g21"
     transform="translate(2.0110496e-8)">
    <path
       style="fill:#000000"
       d="m 123,796.31128 c -7.24334,-3.65212 -7.95126,-5.07867 -7.1834,-14.47551 0.14094,-1.72476 -1.08053,-3.69052 -3.12597,-5.03074 -1.84651,-1.20988 -3.3573,-2.81305 -3.3573,-3.5626 0,-0.74954 3.08824,-5.93937 6.86275,-11.53296 6.53899,-9.69036 6.86274,-10.58482 6.86274,-18.96016 0,-10.20558 -2.95601,-17.41593 -7.13997,-17.41593 -1.47364,0 -4.00823,-0.83118 -5.63243,-1.84707 -1.85916,-1.16285 -8.66436,-2.10552 -18.37083,-2.54477 -17.577462,-0.79543 -21.252218,-2.01874 -32.40935,-10.78892 -4.304901,-3.38392 -8.446927,-6.15257 -9.204502,-6.15257 -0.757575,0 -4.631129,-3.07724 -8.607897,-6.8383 l -7.230488,-6.83829 -7.151605,0.84053 c -4.278722,0.50288 -7.483189,0.30401 -7.977032,-0.49504 -0.453986,-0.73457 -3.490018,-1.33557 -6.746739,-1.33557 -3.2567205,0 -5.9213103,-0.60716 -5.9213103,-1.34924 0,-0.74208 7.5000003,-12.5896 16.6666663,-26.32784 C 32.5,647.91807 40,635.69521 40,634.49438 c 0,-1.20083 1.070576,-2.46328 2.379058,-2.80546 1.308482,-0.34218 5.52169,-5.96215 9.362683,-12.48884 6.10279,-10.36998 6.881056,-12.49735 6.170412,-16.86671 -0.735521,-4.52231 -0.53001,-5 2.151089,-5 1.630367,0 4.453193,-1.60654 6.272947,-3.57008 2.967004,-3.20146 3.220651,-4.31877 2.456472,-10.82074 -0.758581,-6.45434 -0.604346,-7.15555 1.40435,-6.38474 6.289658,2.41356 14.755474,3.24577 30.742179,3.022 l 17.60586,-0.24644 0.39414,-4.63775 0.39414,-4.63775 14,-3.82792 c 7.7,-2.10536 14.16882,-3.98719 14.37515,-4.18184 0.20633,-0.19466 0.63626,-1.7098 0.95541,-3.36698 0.31914,-1.65718 1.50747,-4.42816 2.64074,-6.15774 1.97959,-3.02124 1.87584,-3.26333 -2.64293,-6.16735 -5.27662,-3.39106 -6.17306,-8.72665 -1.32772,-7.90258 1.46631,0.24938 4.01602,0.46285 5.66602,0.47438 1.65,0.0115 3,0.71731 3,1.5684 0,1.76376 13.45262,10.17046 16.27503,10.17046 1.02207,0 2.52272,-0.66441 3.33478,-1.47648 1.07975,-1.07975 1.90113,-0.68302 3.05686,1.47648 1.14291,2.13555 1.1771,3.35623 0.12352,4.40981 -2.2419,2.24191 -1.73533,5.97839 1.20981,8.92353 1.66764,1.66764 2.66667,4.44444 2.66667,7.41202 0,5.51455 2.06182,5.04379 3.33696,-0.7619 0.62641,-2.85203 1.88738,-4.23994 4.4325,-4.87873 1.95636,-0.49101 5.19999,-2.53572 7.20805,-4.54378 l 3.65103,-3.65103 5.95777,2.26152 c 3.27677,1.24384 6.34436,2.64812 6.81686,3.12063 0.47251,0.4725 -2.19991,6.05648 -5.9387,12.40885 -3.7388,6.35236 -6.79781,12.03119 -6.79781,12.61963 0,0.58843 2.1,2.9137 4.66667,5.16726 2.97155,2.60906 4.66667,5.29553 4.66667,7.39585 0,3.53451 -4.34697,7.44968 -8.27128,7.44968 -2.03028,0 -5.04919,6.06854 -3.55552,7.14721 0.27141,0.196 5.74346,3.841 12.16013,8.10001 11.51595,7.64361 12.94983,9.13569 10.33333,10.75278 -3.04248,1.88036 -1.20608,5.50966 3.66667,7.24648 2.75,0.9802 6.59262,2.90074 8.53916,4.26785 4.63253,3.25358 5.97209,3.13777 8.51009,-0.7357 3.08009,-4.70082 5.16586,-5.00225 11.9035,-1.72025 6.69706,3.26222 7.8625,6.79471 3.47978,10.54731 -3.23655,2.77123 -2.29796,6.90529 2.01381,8.86986 1.77118,0.80701 3.22033,2.05078 3.22033,2.76395 0,0.71316 3.89466,3.47468 8.65479,6.1367 4.76014,2.66202 9.00664,5.40933 9.43667,6.10512 0.43002,0.6958 -0.85682,4.0613 -2.85966,7.47888 l -3.64152,6.21379 3.06881,2.07967 c 1.68785,1.14382 4.93782,3.99166 7.22215,6.32853 3.77349,3.86027 4.70048,4.1803 10.13604,3.49932 l 5.98272,-0.74953 L 296,705.54243 c -3.17464,2.18399 -4.8088,4.44402 -5.11122,7.06879 -0.2445,2.12211 -1.93326,5.81018 -3.75279,8.19571 -2.45032,3.21253 -3.19946,5.63059 -2.88878,9.32433 0.37038,4.40348 1.32304,5.60292 8.14182,10.25081 7.54103,5.14019 7.78559,5.20658 10.41474,2.82724 2.30839,-2.08907 2.86799,-2.15889 3.92388,-0.48958 1.67549,2.64888 1.58566,3.36044 -0.65945,5.22371 -1.06249,0.88179 -2.63373,3.80526 -3.49164,6.4966 -0.85792,2.69134 -3.58861,9.22627 -6.06821,14.52207 C 294.02876,774.25792 292,779.61251 292,780.8612 c 0,2.01587 -0.33627,1.96957 -3,-0.41304 -1.65,-1.47587 -5.11023,-3.94302 -7.68941,-5.48255 -2.57918,-1.53953 -6.13377,-4.33659 -7.89909,-6.21568 -1.76532,-1.8791 -4.02219,-3.41655 -5.01527,-3.41655 -0.99309,0 -5.25654,-1.74202 -9.47434,-3.87116 -4.94227,-2.49485 -8.9018,-3.63545 -11.13699,-3.20816 -3.66103,0.69985 -7.36388,5.85781 -5.90262,8.22218 0.47491,0.76842 -1.10432,4.06025 -3.5094,7.31517 -2.40509,3.25492 -7.24663,10.03893 -10.75898,15.07559 l -6.3861,9.15755 -16.69921,-1.00232 c -11.25783,-0.67571 -17.29751,-1.60062 -18.53537,-2.83848 -1.77707,-1.77707 -18.17841,-4.85037 -25.88505,-4.85037 -2.39516,0 -4.48318,-1.05465 -5.69177,-2.8749 -3.15899,-4.75768 -8.38246,-2.41902 -12.42788,5.56422 -2.25993,4.45977 -4.20022,6.64402 -5.90193,6.64402 -1.39434,0 -3.33423,0.26414 -4.31087,0.58699 -0.97665,0.32284 -4.92572,-1.00125 -8.77572,-2.94243 z"
       id="Nackawic-Millville"
       transform="translate(2.0110496e-8)" />
    <text
       xml:space="preserve"
       style="font-weight:bold;font-size:16.5254px;font-family:sans-serif;-inkscape-font-specification:'sans-serif Bold';text-align:start;writing-mode:lr-tb;direction:ltr;text-anchor:start;fill:#ffdd55;stroke-width:0.95339"
       x="143.1125"
       y="677.20691"
       id="text3-3"
       inkscape:label="Village of Fredericton Junction Label"><tspan
         sodipodi:role="line"
         style="font-size:16.5254px;text-align:center;text-anchor:middle;fill:#ffffff;stroke-width:0.95339"
         x="143.1125"
         y="677.20691"
         id="tspan4-6">Nackawic-Millville</tspan></text>
  </g>
  <g
     id="g2">
    <path
       style="fill:#000000"
       d="m 239.58303,1096.4809 c -2.37739,-3.1517 -2.43742,-3.1548 -21.2497,-1.069 -4.21666,0.4675 -7.66891,0.3411 -7.67165,-0.2809 -0.003,-0.622 -1.32421,-3.2309 -2.93661,-5.7976 -1.61239,-2.5667 -2.96742,-4.9667 -3.01116,-5.3333 -0.0437,-0.3667 -2.0738,-3.5497 -4.51123,-7.0734 -2.43744,-3.5236 -4.15437,-7.1293 -3.81541,-8.0127 0.33896,-0.8833 3.39049,-2.348 6.78118,-3.2548 6.59012,-1.7626 6.76809,-2.1412 4.85395,-10.3258 -0.68602,-2.9333 -1.65489,-10.9566 -2.15304,-17.8295 -1.05369,-14.5376 -4.89392,-23.4183 -10.59821,-24.5087 -1.83414,-0.3506 -3.68593,-0.069 -4.1151,0.625 -0.42917,0.6945 -2.22002,0.9013 -3.97968,0.4596 -1.77014,-0.4443 -4.87349,0.063 -6.94691,1.1349 -2.06114,1.0659 -6.34323,2.1286 -9.51575,2.3617 -5.21537,0.3831 -5.81588,0.1155 -6.26551,-2.792 -0.55007,-3.557 -4.85109,-11.2562 -8.7022,-15.57772 -1.87525,-2.10433 -2.31169,-4.07772 -1.76932,-8 1.88749,-13.64963 2.30128,-26.86256 0.92198,-29.43981 -1.21297,-2.26645 -0.90372,-3.25686 1.8143,-5.8103 1.80209,-1.69297 2.98105,-3.37361 2.6199,-3.73476 -0.36114,-0.36114 1.03063,-1.6827 3.09282,-2.93679 3.20644,-1.94995 4.00784,-3.70463 5.53364,-12.1159 0.98131,-5.40965 2.2919,-10.40573 2.91244,-11.10239 1.31459,-1.47588 1.53408,-13.21639 0.27069,-14.47977 -0.47164,-0.47165 -0.7331,-6.03181 -0.581,-12.35592 0.22294,-9.26965 -0.16778,-11.98933 -2.01577,-14.03134 -1.26077,-1.39314 -1.72722,-2.53298 -1.03656,-2.53298 0.76288,0 0.84594,-3.2708 0.21163,-8.33333 -0.57426,-4.58333 -1.02268,-10.5727 -0.99648,-13.3097 0.041,-4.28669 -0.97598,-5.99999 -7.33832,-12.36232 -7.86715,-7.86715 -8.24027,-8.66285 -5.85401,-12.48385 1.10655,-1.77188 1.14208,-3.57137 0.12794,-6.48052 -1.3949,-4.00142 -1.35299,-4.05024 6.47616,-7.5434 7.55879,-3.37253 8.08371,-3.43087 12.87205,-1.43066 2.74555,1.14688 6.49191,3.44413 8.32524,5.10499 5.56421,5.04075 10.36518,7.50546 14.61976,7.50546 2.2258,0 4.04691,-0.7 4.04691,-1.55556 0,-0.85555 0.36157,-1.19398 0.80349,-0.75207 1.669,1.669 16.13467,-17.15188 23.33387,-30.35904 1.59895,-2.93334 5.52216,-8.73776 8.71825,-12.89873 3.19608,-4.16096 5.81106,-8.08363 5.81106,-8.71703 0,-0.6334 1.77561,-3.22898 3.94581,-5.76794 2.54743,-2.9803 3.96502,-6.1372 4,-8.90779 0.0612,-4.84865 1.13453,-4.80232 9.50905,0.41043 2.63351,1.63924 7.28737,3.7292 10.34193,4.64437 3.05455,0.91517 5.28313,1.93454 4.9524,2.26527 -0.75675,0.75675 5.49736,6.00539 9.91747,8.32305 3.62918,1.90293 11.70848,8.12597 17.07911,13.15509 2.35882,2.20882 5.44544,3.35644 10.15489,3.77562 3.7213,0.33123 8.67444,1.70845 11.00698,3.06049 2.33254,1.35204 5.61975,2.65301 7.30492,2.89105 4.16252,0.58796 7.38635,4.03879 10.07474,10.78412 1.23821,3.10676 3.63012,7.14254 5.31533,8.96838 l 3.06403,3.3197 v -4.40736 c 0,-2.42405 -0.61388,-5.55442 -1.36418,-6.95637 -1.14545,-2.14029 -0.98511,-2.4153 1,-1.71517 1.3003,0.45861 4.16418,2.1073 6.36418,3.66376 2.2,1.55646 5.58256,3.63302 7.5168,4.61459 l 3.5168,1.78467 -5.02107,8.8549 c -2.76159,4.8702 -7.63709,12.7549 -10.83445,17.52157 -7.97289,11.88608 -8.88115,13.7762 -9.90693,20.61658 -0.49191,3.28029 -1.72915,6.65696 -2.74943,7.50372 -2.71462,2.25293 -2.27273,4.53889 1.24089,6.41932 2.35212,1.25881 3.07289,2.75354 3,6.22138 -0.0655,3.11421 -0.7314,4.57222 -2.09594,4.58883 -1.72579,0.021 -1.73564,0.19159 -0.0718,1.24422 1.19231,0.75434 2.90745,0.69578 4.49423,-0.15344 1.92545,-1.03047 2.31884,-0.97328 1.57574,0.22908 -0.54468,0.88132 -2.96455,2.42728 -5.37748,3.43547 -3.40999,1.42478 -4.23003,2.4339 -3.68173,4.53062 0.38799,1.48366 1.38545,2.71664 2.21659,2.73996 0.83114,0.0233 0.31116,0.99217 -1.15551,2.153 -1.9172,1.51742 -2.18261,2.29141 -0.94435,2.75393 1.26529,0.47261 1.33628,1.10847 0.26754,2.39622 -2.20388,2.65552 2.50875,11.86755 6.35074,12.41412 2.43088,0.34582 2.84583,1.02806 2.19718,3.61252 -0.43983,1.7524 0.16839,5.76055 1.3516,8.907 1.18321,3.14644 2.33636,9.35694 2.56254,13.80109 0.22619,4.44416 0.85245,8.79416 1.39169,9.66667 0.63663,1.0301 0.0177,1.58638 -1.76492,1.58638 -1.50994,0 -2.74535,0.6 -2.74535,1.33334 0,0.73333 -1.05889,1.33333 -2.35308,1.33333 -1.2942,0 -4.4442,1.11208 -7,2.47128 -2.55581,1.35921 -6.92846,2.89231 -9.717,3.4069 -6.19187,1.14263 -7.42477,3.79553 -4.2565,9.15898 2.09314,3.5434 2.12759,3.96636 0.26484,3.25156 -2.41168,-0.92545 -7.29225,2.66522 -7.76299,5.71128 -0.37133,2.40283 2.34561,12.82097 4.4281,16.97957 1.24822,2.4927 0.794,4.3114 -2.77925,11.1282 -3.10667,5.9266 -3.88907,8.6091 -2.8694,9.8377 1.07402,1.2941 0.6975,1.5726 -1.60973,1.1908 -5.50071,-0.9102 -14.34499,10.3271 -14.34499,18.2264 0,2.0973 -0.62775,4.2013 -1.39499,4.6754 -1.34144,0.8291 -1.05018,5.7859 0.58537,9.9619 0.81643,2.0846 -2.71122,3.8536 -22.52372,11.2946 -5.13333,1.9279 -12.03333,4.8332 -15.33333,6.4562 -5.97113,2.9368 -5.99922,2.9833 -5.83693,9.6605 0.15627,6.4295 -0.0144,6.765 -4.08899,8.0404 -3.70018,1.1581 -4.54267,0.9456 -6.49105,-1.6375 z"
       id="Harvey"
       transform="translate(2.0110496e-8)" />
    <text
       xml:space="preserve"
       style="font-weight:bold;font-size:16.5254px;font-family:sans-serif;-inkscape-font-specification:'sans-serif Bold';text-align:start;writing-mode:lr-tb;direction:ltr;text-anchor:start;fill:#ffffff;stroke-width:0.95339"
       x="219.22737"
       y="915.25482"
       id="text1"
       inkscape:label="Harvey Label"><tspan
         sodipodi:role="line"
         id="tspan1"
         style="font-size:16.5254px;fill:#ffffff;stroke-width:0.95339"
         x="219.22737"
         y="915.25482">Harvey</tspan></text>
  </g>
  <g
     id="g3">
    <path
       style="fill:#000000"
       d="m 791.54523,1034.5775 c -4.77934,-2.581 -4.97857,-2.9236 -2.98252,-5.1292 1.97016,-2.177 1.91137,-2.8797 -0.74515,-8.9059 -1.58624,-3.5983 -5.55917,-10.9575 -8.82873,-16.3539 -5.11066,-8.43503 -6.08718,-11.2409 -6.9606,-19.99998 -0.55877,-5.60365 -2.33367,-13.73716 -3.94422,-18.07446 -1.61055,-4.3373 -3.28142,-10.86782 -3.71305,-14.51227 -0.58201,-4.91409 -1.42037,-6.79247 -3.24454,-7.26951 -1.35286,-0.35378 -2.45975,-1.8127 -2.45975,-3.24205 0,-1.42935 -0.61362,-3.74537 -1.3636,-5.14673 -0.74998,-1.40135 -1.41448,-6.1619 -1.47666,-10.57901 -0.0622,-4.4171 -0.55447,-8.0311 -1.09398,-8.0311 -0.53951,0 -1.52502,-6.71952 -2.19002,-14.93226 l -1.20908,-14.93227 -6.29453,-3.22788 c -5.65385,-2.89933 -6.14471,-3.50784 -4.82251,-5.9784 1.51982,-2.8398 0.43617,-4.27333 -6.39154,-8.45512 -2.2167,-1.35768 -2.287,-1.86655 -0.63752,-4.61504 1.74096,-2.90094 1.50719,-3.38771 -3.83781,-7.99115 -3.24931,-2.79851 -5.29592,-5.54243 -4.76938,-6.39438 0.51323,-0.83042 -0.15011,-1.87131 -1.49553,-2.34676 -1.32981,-0.46994 -4.38828,-2.31182 -6.79658,-4.09307 l -4.37874,-3.23865 2.79385,-4.52054 2.79385,-4.52054 -3.41877,-5.83368 c -3.36014,-5.73366 -3.37488,-5.8734 -0.85936,-8.14991 3.03697,-2.74842 5.44313,-1.78845 11.44791,4.56727 5.52743,5.85048 9.95471,7.8925 19.20867,8.85973 7.54762,0.78888 8.10476,0.64115 11.21405,-2.97362 2.54392,-2.95747 3.67662,-3.4701 5.09123,-2.30411 1.00066,0.82479 3.87192,1.7053 6.38057,1.95667 4.22979,0.42383 4.64854,0.11797 5.76328,-4.20963 0.66114,-2.56666 3.75311,-7.36666 6.87105,-10.66666 3.11794,-3.3 6.60207,-7.5 7.74251,-9.33334 1.27942,-2.05674 5.07131,-4.45055 9.90108,-6.25052 31.64896,-11.79501 29.27931,-10.46305 32.24896,-18.12691 5.31999,-13.72942 7.00969,-21.89131 8.10005,-39.12616 1.09968,-17.38226 1.14098,-17.54763 5.95962,-23.8584 2.66874,-3.49515 4.86689,-7.61854 4.88477,-9.16308 0.0478,-4.12932 5.75874,-23.45341 8.73097,-29.54304 1.93228,-3.95894 4.3485,-6.16163 9.73898,-8.8783 3.94301,-1.98719 8.14301,-4.42461 9.33333,-5.4165 1.19032,-0.99188 4.7578,-2.92678 7.92775,-4.29978 3.16995,-1.37299 6.83149,-3.85403 8.13676,-5.51341 1.43456,-1.82375 2.85558,-2.53469 3.59279,-1.79749 1.42565,1.42566 7.17358,0.21153 7.17358,-1.51526 0,-0.6478 0.87889,-1.17782 1.95308,-1.17782 1.0742,0 2.53881,-1.09443 3.25469,-2.43206 0.71588,-1.33763 3.58699,-3.12527 6.38024,-3.97253 C 919.90899,641.2137 924,635.55567 924,629.45063 c 0,-4.46583 4.47249,-7.24825 11.84343,-7.36802 2.7949,-0.0454 5.9252,-0.78296 6.95621,-1.63899 1.43645,-1.19264 2.42082,-1.157 4.21166,0.15249 2.14637,1.56946 2.17326,2.10099 0.32956,6.5136 -2.729,6.53142 -2.5558,8.82604 1.41488,18.74463 3.04397,7.60371 3.90183,8.63895 7.75813,9.3624 2.38464,0.44736 6.10739,0.45905 8.27278,0.026 3.75716,-0.75143 4.01387,-0.50021 5.61806,5.49766 0.92455,3.45679 1.51172,6.38287 1.30481,6.5024 -0.2069,0.11953 -2.02583,0.92579 -4.04207,1.79169 -2.33615,1.00329 -4.44414,3.51943 -5.81144,6.93664 -1.18006,2.94925 -2.99327,5.36228 -4.02937,5.36228 -1.93101,0 -3.76651,3.42243 -5.01281,9.34677 -1.44275,6.8582 -13.79736,9.89442 -18.28052,4.49254 -2.28457,-2.75274 -3.42851,-2.35329 -10.96077,3.82736 -7.12846,5.84931 -8.8504,7.64913 -8.88546,9.28736 -0.0529,2.4732 8.02564,8.75783 12.28486,9.55687 4.92895,0.92467 6.36139,2.77081 6.36139,8.19856 0,1.73692 0.95479,3.69236 2.12176,4.34543 1.74007,0.97379 1.36192,1.50213 -2.10214,2.93699 -3.09415,1.28163 -4.05166,2.40826 -3.57992,4.21219 0.35419,1.35443 0.10016,2.4626 -0.56452,2.4626 -0.66468,0 -1.20851,1.78857 -1.20851,3.9746 0,3.13306 -0.70943,4.15265 -3.35065,4.81555 -1.84285,0.46253 -4.14806,0.17917 -5.12268,-0.62969 -0.97461,-0.80886 -2.1969,-1.04579 -2.71619,-0.5265 -0.51928,0.51929 -3.16408,0.96408 -5.87732,0.98843 -3.99734,0.0359 -5.00986,0.58188 -5.33747,2.87824 -0.3176,2.22619 -1.6039,2.99486 -5.99792,3.58422 -10.97282,1.47176 -15.20263,12.42642 -8.07074,20.90219 l 3.52703,4.19163 -4.25382,6.03494 c -3.48417,4.94304 -3.95606,6.39371 -2.60812,8.01788 0.93125,1.12209 2.98655,1.72662 4.73431,1.39252 1.81725,-0.34739 4.26716,0.43173 5.95177,1.89278 1.57474,1.36577 3.63685,2.48321 4.58248,2.48321 1.06896,0 1.87441,2.13986 2.12932,5.65704 0.37053,5.11242 1.02364,6.05766 6.78409,9.81853 3.50575,2.28883 6.75675,4.54416 7.22444,5.01185 0.46769,0.46769 -1.05065,3.49744 -3.37409,6.73277 -2.32344,3.2353 -4.22444,6.47203 -4.22444,7.1927 0,0.72067 -2.11936,5.77307 -4.70968,11.22755 -2.59032,5.45449 -4.37541,10.78836 -3.96685,11.85304 0.40856,1.06469 2.67792,2.98718 5.04302,4.27222 2.3651,1.28504 5.75114,3.44218 7.52454,4.79366 l 3.22436,2.45723 -5.68132,3.58646 c -5.30894,3.35139 -5.84028,3.44261 -8.10645,1.39175 -4.6733,-4.22927 -9.38491,-2.10759 -14.39294,6.48128 C 884.09268,892.21033 880,895.52238 880,889.32519 c 0,-2.32109 -5.11964,-5.32513 -9.07534,-5.32513 -1.25576,0 -3.03261,-1.2 -3.94856,-2.66667 -0.91595,-1.46667 -2.88457,-2.66667 -4.37472,-2.66667 -3.9268,0 -10.59382,5.37544 -10.64662,8.58408 -0.0249,1.51209 -1.20453,5.14926 -2.62143,8.08259 -1.4169,2.93333 -2.59654,7.30261 -2.62142,9.70949 -0.0602,5.82481 -3.20253,13.07902 -6.40873,14.79492 -1.75894,0.94136 -4.14054,0.95739 -7.42679,0.05 C 824.75509,917.64542 820,922.2425 820,932.33631 v 4.16266 l -4,-3.83224 c -2.2,-2.10774 -4,-4.80531 -4,-5.99462 0,-3.2735 -2.92546,-6.42793 -6.83366,-7.36854 -3.4564,-0.83186 -3.51224,-0.72818 -4.44914,8.26036 -0.52185,5.00654 -2.0967,11.72907 -3.49967,14.93896 -3.34282,7.64808 -3.22207,9.52318 0.82295,12.78042 3.56377,2.86971 4.92136,9.75065 6.71798,34.05009 0.98254,13.289 1.61838,16 3.75262,16 0.98649,0 4.89224,3.0501 8.67945,6.7781 l 6.88583,6.778 -3.05349,2.222 c -1.67942,1.222 -4.2466,2.8824 -5.70485,3.6897 -1.45824,0.8073 -2.82894,2.9302 -3.046,4.7176 -0.81874,6.7421 -12.38297,9.5645 -20.72679,5.0587 z"
       id="Arcadia"
       transform="translate(2.0110496e-8)" />
    <text
       xml:space="preserve"
       style="font-weight:bold;font-size:16.5254px;font-family:sans-serif;-inkscape-font-specification:'sans-serif Bold';text-align:start;writing-mode:lr-tb;direction:ltr;text-anchor:start;fill:#ffffff;stroke-width:0.95339"
       x="808.8858"
       y="835.23761"
       id="text2"
       inkscape:label="Arcadia Label"><tspan
         sodipodi:role="line"
         id="tspan2"
         style="font-size:16.5254px;stroke-width:0.95339"
         x="808.8858"
         y="835.23761">Arcadia</tspan></text>
  </g>
  <g
     id="g4">
    <path
       style="fill:#000000"
       d="m 506.66667,988.16625 c 0,-6.81497 -3.11187,-10.82927 -8.40894,-10.84753 -2.34175,-0.008 -6.44367,-0.37618 -9.11536,-0.81802 l -4.85764,-0.80334 3.38026,-6.51532 c 1.85915,-3.58342 4.00642,-6.51531 4.7717,-6.51531 0.76529,0 2.80708,1.32992 4.5373,2.95538 3.78461,3.55546 6.96863,2.22647 9.00869,-3.76016 1.62979,-4.78269 3.41157,-6.13785 5.63927,-4.28903 1.21863,1.01138 2.25051,0.97289 3.58385,-0.13368 1.62926,-1.35217 8.7942,-0.77748 8.7942,0.70537 0,0.28716 -1.2375,1.75962 -2.75,3.27212 -3.24932,3.24932 -2.81051,5.75391 1.10944,6.33247 3.91977,0.57853 4.66292,8.0671 1.09508,11.03493 -2.6182,2.17789 -1.83327,5.9024 1.01368,4.80992 0.88827,-0.34086 1.5318,0.74126 1.5318,2.57577 0,2.8666 -1.58238,3.64789 -6.33333,3.12703 -0.18334,-0.0201 -3.18334,0.82118 -6.66667,1.86951 l -6.33333,1.90606 z"
       id="Village of Fredericton Junction"
       transform="translate(2.0110496e-8)" />
    <text
       xml:space="preserve"
       style="font-weight:bold;font-size:16.5254px;font-family:sans-serif;-inkscape-font-specification:'sans-serif Bold';text-align:start;writing-mode:lr-tb;direction:ltr;text-anchor:start;fill:#ffdd55;stroke-width:0.95339"
       x="586.36835"
       y="988.47607"
       id="text3"
       inkscape:label="Village of Fredericton Junction Label"><tspan
         sodipodi:role="line"
         id="tspan3"
         style="font-size:16.5254px;text-align:center;text-anchor:middle;fill:#ffffff;stroke-width:0.95339"
         x="586.36835"
         y="988.47607">Fredericton </tspan><tspan
         sodipodi:role="line"
         style="font-size:16.5254px;text-align:center;text-anchor:middle;fill:#ffffff;stroke-width:0.95339"
         x="586.36835"
         y="1009.1328"
         id="tspan4">Junction</tspan></text>
  </g>
  <g
     id="g5">
    <path
       style="fill:#000000"
       d="m 463.33333,984.01822 c -2.2,-0.59108 -5.62829,-1.44295 -7.61843,-1.89305 l -3.61843,-0.81837 4.615,-7.65337 c 5.09089,-8.44256 5.67597,-10.9867 2.52663,-10.9867 -1.15239,0 -2.99524,-0.9 -4.09524,-2 -2.49593,-2.49593 -3.77214,-2.51357 -6.2,-0.0857 -2.67757,2.67757 -4.60974,0.29612 -3.86679,-4.76592 0.58961,-4.01724 0.75525,-4.1057 6.47944,-3.46051 5.65949,0.63791 5.94411,0.49518 7.78152,-3.90236 1.04894,-2.51047 1.58377,-6.18922 1.1885,-8.17499 -0.65238,-3.27743 -0.34076,-3.6236 3.3779,-3.75248 2.5948,-0.0899 4.09657,0.50938 4.09657,1.63482 0,0.97723 2.036,2.84112 4.52443,4.14197 2.48844,1.30085 7.21411,5.68346 10.50147,9.73913 l 5.97704,7.37394 -3.8814,7.67595 c -2.13478,4.22177 -4.48672,7.30184 -5.22655,6.8446 -1.9531,-1.20708 -4.82754,1.61987 -5.86988,5.7729 -1.39097,5.54206 -3.27687,6.30232 -10.69178,4.31016 z"
       id="Village of Tracy"
       transform="translate(2.0110496e-8)" />
    <text
       xml:space="preserve"
       style="font-weight:bold;font-size:16.5254px;font-family:sans-serif;-inkscape-font-specification:'sans-serif Bold';text-align:center;writing-mode:lr-tb;direction:ltr;text-anchor:middle;fill:#ffdd55;stroke-width:0.95339"
       x="427.08051"
       y="973.69055"
       id="text5"
       inkscape:label="Village of Tracy Label"><tspan
         sodipodi:role="line"
         id="tspan5"
         style="font-size:16.5254px;fill:#ffffff;stroke-width:0.95339"
         x="427.08051"
         y="973.69055">Tracy</tspan></text>
  </g>
  <g
     id="g7">
    <path
       style="fill:#000000"
       d="m 536.21275,917.4931 c -0.98299,-0.62304 -2.48299,-2.49826 -3.33333,-4.16716 -0.98665,-1.93641 -3.95834,-3.78343 -8.21275,-5.10456 -3.66667,-1.13861 -7.14648,-2.8542 -7.73292,-3.81243 -1.31415,-2.14727 -6.52846,-2.28085 -8.58927,-0.22004 -1.14068,1.14068 -2.67822,0.9736 -6.13483,-0.66667 -2.53697,-1.20387 -5.30178,-2.18885 -6.14404,-2.18885 -0.84225,0 -3.26752,-0.8978 -5.38949,-1.99511 -2.44153,-1.26256 -4.16039,-1.50602 -4.68137,-0.66306 -0.53666,0.86834 -1.66238,0.88296 -3.23369,0.042 -1.32574,-0.70951 -2.7309,-0.96956 -3.12258,-0.57789 -1.49805,1.49805 -6.26028,-2.89971 -7.05418,-6.51429 -0.546,-2.48595 -2.0473,-4.21527 -4.37447,-5.03887 -1.94874,-0.68967 -4.56944,-1.84396 -5.82379,-2.56509 -2.70795,-1.55681 -5.88628,-0.57992 -6.92566,2.12868 -0.64486,1.68048 -1.30673,1.65347 -4.8901,-0.19957 -2.27937,-1.1787 -4.95577,-1.83171 -5.94756,-1.45112 -0.99179,0.38059 -3.78764,0.10104 -6.21299,-0.62121 C 435.98438,883.15563 429.2,882.005 423.33333,881.32094 411.64627,879.9582 396,876.14942 396,874.66717 c 0,-0.87949 12.04308,-20.32415 17.51513,-28.27979 1.36668,-1.98697 2.48866,-4.38697 2.4933,-5.33334 0.005,-0.94636 1.79211,-2.73556 3.97217,-3.976 5.15555,-2.93348 9.62599,-10.18371 8.68706,-14.08883 -1.11454,-4.63552 10.86006,-22.90179 15.66567,-23.89671 3.12577,-0.64713 3.66667,-1.42294 3.66667,-5.25912 0,-3.62944 0.52227,-4.5 2.69967,-4.5 1.56928,0 3.18223,1.25614 3.85217,3 0.63388,1.65 2.61807,4.5 4.4093,6.33334 5.79709,5.93333 19.49018,17.33333 20.8199,17.33333 0.71115,0 3.54879,-3.45 6.30588,-7.66666 2.75708,-4.21667 5.14837,-7.84961 5.31396,-8.07321 0.1656,-0.22359 10.37353,5.31899 22.68429,12.31685 12.31077,6.99787 24.52783,13.12438 27.14902,13.61447 2.6212,0.49009 6.44838,1.59701 8.50485,2.45982 3.15725,1.32465 3.43761,1.81892 1.80179,3.17653 -1.56849,1.30173 -1.6466,2.37784 -0.41035,5.65304 1.3043,3.45548 1.1874,4.23526 -0.80178,5.34847 -2.54487,1.42417 -3.42048,11.83736 -0.99537,11.83736 2.37851,0 1.40801,5.12993 -1.12244,5.93307 -1.35068,0.42869 -3.90068,2.31747 -5.66667,4.1973 -3.04377,3.23998 -3.08627,3.509 -0.81657,5.16867 2.91976,2.13501 1.87929,8.97809 -1.18623,7.80174 -1.03439,-0.39694 -3.37937,-0.34556 -5.21107,0.11416 -3.05539,0.76686 -3.33035,1.45207 -3.33035,8.29931 0,6.807 0.23454,7.4021 2.66667,6.76609 1.69896,-0.44429 2.66666,-0.0409 2.66666,1.11157 0,0.99491 1.05,2.43874 2.33334,3.20851 2.22222,1.33294 2.22222,1.46623 0,2.79917 -3.03475,1.82031 -2.94223,3.33364 0.49927,8.16679 2.33801,3.28344 2.57581,4.54161 1.36192,7.20582 -1.57923,3.46603 -2.51623,3.82816 -5.31511,2.05418 z"
       id="Sunburty-York South"
       transform="translate(2.0110496e-8)" />
    <text
       xml:space="preserve"
       style="font-weight:bold;font-size:16.5254px;font-family:sans-serif;-inkscape-font-specification:'sans-serif Bold';text-align:center;writing-mode:lr-tb;direction:ltr;text-anchor:middle;fill:#ffdd55;stroke-width:0.95339"
       x="483.7666"
       y="848.4729"
       id="text6"
       inkscape:label="Sunburty-York South Label"><tspan
         sodipodi:role="line"
         id="tspan6"
         style="font-style:normal;font-variant:normal;font-weight:bold;font-stretch:normal;font-size:16.5254px;font-family:sans-serif;-inkscape-font-specification:'sans-serif Bold';fill:#ffffff;stroke-width:0.95339"
         x="483.7666"
         y="848.4729">Sunburty-York</tspan><tspan
         sodipodi:role="line"
         style="font-style:normal;font-variant:normal;font-weight:bold;font-stretch:normal;font-size:16.5254px;font-family:sans-serif;-inkscape-font-specification:'sans-serif Bold';fill:#ffffff;stroke-width:0.95339"
         x="483.7666"
         y="869.12964"
         id="tspan7">South</tspan></text>
  </g>
  <g
     id="g8">
    <path
       style="fill:#000000"
       d="m 359.33333,893.3494 c -22.98246,-13.67096 -22.34915,-13.19066 -20.21142,-15.3284 1.03886,-1.03885 2.31251,-4.71417 2.83035,-8.16738 0.90033,-6.00378 5.68251,-14.84163 16.32684,-30.17322 2.41316,-3.47582 4.38757,-6.8449 4.38757,-7.48686 0,-0.64196 1.25742,-2.76575 2.79427,-4.71954 1.53685,-1.95379 2.51203,-4.28471 2.16706,-5.17981 -0.92225,-2.393 -20.99112,-14.7868 -24.09556,-14.88055 -1.46155,-0.0441 -4.12609,-1.52936 -5.9212,-3.3005 -2.88829,-2.8497 -3.17154,-3.99964 -2.46163,-9.99374 0.68588,-5.79119 1.55685,-7.40034 6.00565,-11.09576 4.1136,-3.41698 5.38679,-5.54505 6.07892,-10.16051 0.68896,-4.5943 1.93303,-6.6881 5.8388,-9.82686 4.08744,-3.28476 5.24968,-5.35397 6.58619,-11.72584 3.03296,-14.45973 7.33703,-17.97705 21.99814,-17.97705 5.49574,0 7.45221,-0.69792 11.21306,-4 6.72051,-5.90068 16.70177,-6.03143 21.44255,-0.28089 2.89524,3.5119 3.43595,3.62689 19.09894,4.06148 12.30916,0.34154 15.9664,0.84583 15.4723,2.13344 -1.40317,3.6566 2.1097,24.07641 4.61711,26.83857 3.21233,3.53871 3.16252,6.23338 -0.17098,9.25016 -5.17085,4.67955 -9.57135,14.29424 -8.69072,18.98842 0.69443,3.70159 0.42882,4.34216 -1.80045,4.34216 -2.55991,0 -6.65578,4.55297 -13.79393,15.33333 -5.65142,8.53504 -7.01574,12.2923 -5.24034,14.43153 1.87357,2.25752 -2.46515,7.45105 -9.08409,10.87383 -3.11413,1.61038 -4.13137,2.92179 -3.66116,4.71989 0.37118,1.41938 -0.41857,3.45798 -1.83686,4.74151 -1.3684,1.23838 -2.88271,3.52247 -3.36513,5.07576 -0.48243,1.55328 -3.70422,7.02415 -7.15953,12.15749 -13.30576,19.7675 -24.03141,36.72918 -24.03141,38.00357 0,2.22533 -1.50044,1.57418 -15.33334,-6.65423 z"
       id="Hanwell"
       transform="translate(2.0110496e-8)" />
    <text
       xml:space="preserve"
       style="font-weight:bold;font-size:16.5254px;font-family:sans-serif;-inkscape-font-specification:'sans-serif Bold';text-align:center;writing-mode:lr-tb;direction:ltr;text-anchor:middle;fill:#ffffff;stroke-width:0.95339"
       x="396.09808"
       y="786.82581"
       id="text8"
       inkscape:label="Hanwell Label"><tspan
         sodipodi:role="line"
         id="tspan8"
         style="font-size:16.5254px;stroke-width:0.95339"
         x="396.09808"
         y="786.82581">Hanwell</tspan></text>
  </g>
  <g
     id="g9">
    <path
       style="fill:#000000"
       d="m 567.35204,847.97939 c 3.53606,-3.9073 1.20423,-7.4699 -4.5132,-6.89534 -3.35986,0.33765 -4.44667,-0.22764 -5.69185,-2.96051 -1.16586,-2.55878 -1.16263,-3.83141 0.0133,-5.24834 1.88541,-2.27178 0.60996,-6.20848 -2.01147,-6.20848 -2.5867,0 -3.78923,-3.62181 -1.94167,-5.84798 0.82803,-0.99772 1.13096,-2.79007 0.67318,-3.98302 -0.65563,-1.70855 0.024,-2.169 3.20128,-2.169 6.74462,0 7.98385,-0.99623 7.03151,-5.65267 -0.82706,-4.04383 -7.83201,-10.47949 -15.9205,-14.62662 -2.84111,-1.45669 -3.49901,-1.17126 -6.89729,2.99249 -3.33029,4.08045 -6.35751,14.08236 -5.43386,17.95347 0.17498,0.73333 -2.74736,-1.66667 -6.49407,-5.33334 -8.49072,-8.30931 -9.50379,-11.62507 -5.01687,-16.4201 1.84243,-1.96895 3.75918,-4.93456 4.25946,-6.59027 0.84365,-2.7921 1.11771,-2.8646 3.77981,-1 1.57861,1.10571 4.53669,2.01037 6.57352,2.01037 2.03683,0 3.70333,0.644 3.70333,1.4311 0,0.7871 1.05,1.21923 2.33333,0.96028 1.28333,-0.25895 3.83333,0.94107 5.66667,2.66671 1.83333,1.72564 5.88333,4.92234 9,7.10377 3.11666,2.18144 5.66666,4.52347 5.66666,5.20452 0,0.68106 3.05388,3.65223 6.7864,6.60262 5.75241,4.54702 7.74507,5.36434 13.07849,5.36434 3.46066,0 7.45508,-0.85039 8.87649,-1.88976 1.83055,-1.33853 3.07376,-1.48362 4.26207,-0.49741 0.96485,0.80075 3.94067,1.03048 7.00378,0.54066 5.22094,-0.83486 6.22945,-0.10884 5.34312,3.84651 -0.16433,0.73333 -0.24121,4.35399 -0.17084,8.0459 0.11807,6.19493 -0.16315,6.82244 -3.64679,8.13737 -2.79393,1.05459 -4.34997,1.00417 -5.98863,-0.19404 -2.78473,-2.03626 -8.8774,-0.97492 -8.8774,1.54645 0,1.49254 -0.57542,1.58352 -2.72827,0.43135 -1.50056,-0.80307 -4.65056,-1.27418 -7,-1.04692 -3.37926,0.32689 -4.82886,1.45709 -6.9384,5.40962 -1.46666,2.74802 -3.41666,4.99802 -4.33333,5 -0.91667,0.002 -1.66667,0.53941 -1.66667,1.19428 0,0.65488 -1.01636,1.5807 -2.25857,2.05738 -1.93608,0.74294 -1.89649,0.46659 0.27728,-1.93539 z"
       id="Oromocto"
       transform="translate(2.0110496e-8)" />
    <text
       xml:space="preserve"
       style="font-weight:bold;font-size:16.5254px;font-family:sans-serif;-inkscape-font-specification:'sans-serif Bold';text-align:center;writing-mode:lr-tb;direction:ltr;text-anchor:middle;fill:#ffdd55;stroke-width:0.95339"
       x="659.19299"
       y="832.09821"
       id="text9"
       inkscape:label="Oromocto Label"><tspan
         sodipodi:role="line"
         id="tspan9"
         style="font-size:16.5254px;fill:#ffffff;stroke-width:0.95339"
         x="659.19299"
         y="832.09821">Oromocto</tspan></text>
  </g>
  <g
     id="g10">
    <path
       style="fill:#000000"
       d="m 538.43696,822.04541 c -3.42633,-0.9439 -7.92633,-2.90731 -10,-4.36313 -2.07366,-1.45582 -10.81743,-6.67833 -19.4306,-11.60558 -14.32191,-8.19299 -17.3691,-10.68721 -35.65455,-29.18431 -19.44358,-19.66864 -19.99457,-20.38174 -20.00636,-25.89234 -0.009,-4.05061 0.53582,-5.66667 1.90919,-5.66667 1.05672,0 2.30838,-0.62628 2.78146,-1.39174 1.28238,-2.07494 -1.91324,-5.23838 -4.3479,-4.30411 -2.13562,0.81951 -2.07448,-0.88211 0.2318,-6.45146 1.15857,-2.7978 -4.75823,-3.81827 -22.25333,-3.83802 -10.77869,-0.0122 -13,-0.36356 -13,-2.05652 0,-2.95482 3.8525,-3.98579 5.73072,-1.5336 1.2689,1.65667 5.35073,2.22417 19.60261,2.72537 9.9,0.34816 20.11216,1.03141 22.6937,1.51833 3.78739,0.71437 5.18693,0.34029 7.24815,-1.93733 2.5416,-2.80843 2.52833,-2.84423 -2.63558,-7.11011 -5.08881,-4.20386 -5.51194,-4.30091 -21.69493,-4.97597 l -16.50489,-0.6885 -3.55323,-4.32352 c -1.95427,-2.37794 -4.30322,-4.31812 -5.21989,-4.31151 -0.91666,0.007 -1.66666,-0.57655 -1.66666,-1.29591 0,-0.71936 -1.5,-1.68441 -3.33334,-2.14454 C 417.5,702.7541 416,702.07116 416,701.69658 c 0,-0.75419 9.05218,-16.09884 10.98949,-18.62863 0.92734,-1.21096 3.54319,-0.75783 10.78408,1.86807 5.25787,1.90676 10.07005,3.91649 10.69373,4.46607 0.62369,0.54958 -0.4603,3.71964 -2.40885,7.0446 -3.32825,5.67923 -3.39693,6.12254 -1.13397,7.31954 1.32487,0.7008 6.25525,1.4901 10.95639,1.754 8.2942,0.46559 8.61734,0.36126 10.90255,-3.52018 2.98596,-5.07167 3.16481,-11.11058 0.41892,-14.14475 -1.77802,-1.96469 -1.87622,-3.12669 -0.59288,-7.01526 1.21607,-3.68471 2.42998,-4.84002 5.79766,-5.5178 2.74087,-0.55162 6.44892,-3.22966 10.40026,-7.5113 l 6.14071,-6.65403 10.04961,6.10127 c 5.93295,3.60198 10.90807,5.77184 12.1453,5.29707 2.49864,-0.95882 10.19033,4.17585 10.19033,6.80267 0,1.01362 0.85533,2.32276 1.90073,2.9092 1.04541,0.58644 2.09541,3.44272 2.33334,6.34727 0.40776,4.97773 0.73757,5.34396 5.7429,6.37697 6.13301,1.26575 6.71709,1.75479 7.85068,6.5733 0.62683,2.66445 -0.003,4.56493 -2.49452,7.52581 -1.83322,2.17866 -3.33313,4.2541 -3.33313,4.61211 0,0.358 3.9,3.19186 8.66667,6.29747 4.76667,3.1056 8.66667,6.04172 8.66667,6.52471 0,0.48299 -6,9.78723 -13.33334,20.6761 C 530,758.08972 524,768.07804 524,769.39712 c 0,3.98759 6.49025,10.59799 10.45186,10.64533 1.95148,0.0233 4.71282,0.92333 6.13631,2.00001 2.47847,1.87461 2.43328,1.95759 -1.06621,1.95759 -2.00991,0 -5.44221,-0.92452 -7.62733,-2.05449 -4.56051,-2.35833 -6.5613,-1.64807 -6.5613,2.32919 0,1.53119 -2.15619,5.41534 -4.79154,8.63143 -4.71558,5.75476 -4.75522,5.90288 -2.50043,9.34412 4.16825,6.36156 15.81996,16.41912 18.62402,16.07595 2.18424,-0.26731 2.83624,-1.70027 3.61187,-7.93807 0.62177,-5.0004 1.90225,-8.56763 3.73232,-10.3977 l 2.78583,-2.78583 4.03839,3.39809 c 2.22112,1.86895 5.49216,3.76296 7.26897,4.20891 4.72867,1.18682 4.38265,5.84865 -0.43609,5.87549 -4.89522,0.0272 -6.40225,1.2164 -7.56857,5.97212 -1.00819,4.11094 -3.12092,7.43156 -4.59469,7.22157 -0.46021,-0.0656 -3.64011,-0.89151 -7.06645,-1.83542 z"
       id="City of Fredericton"
       transform="translate(2.0110496e-8)" />
    <text
       xml:space="preserve"
       style="font-weight:bold;font-size:16.5254px;font-family:sans-serif;-inkscape-font-specification:'sans-serif Bold';text-align:center;writing-mode:lr-tb;direction:ltr;text-anchor:middle;fill:#ffdd55;stroke-width:0.95339"
       x="533.11908"
       y="735.4184"
       id="text10"
       inkscape:label="City of Fredericton Label"><tspan
         sodipodi:role="line"
         id="tspan10"
         style="font-size:16.5254px;fill:#ffffff;stroke-width:0.95339"
         x="533.11908"
         y="735.4184">Fredericton</tspan></text>
  </g>
  <g
     id="g22">
    <path
       style="fill:#000000"
       d="m 320.13616,795.2192 c -2.57764,-1.83154 -6.41967,-3.21915 -8.9132,-3.21915 -5.34851,0 -9.41636,-1.61725 -14.14777,-5.62472 l -3.59148,-3.04195 5.905,-12 c 3.24775,-6.6 5.91391,-13.00396 5.92481,-14.23103 0.0109,-1.22707 1.4933,-3.98218 3.29423,-6.12246 2.59669,-3.08599 3.06459,-4.676 2.26064,-7.68209 -1.18516,-4.43148 -7.74354,-7.52982 -9.59557,-4.53318 -0.87075,1.4089 -2.04961,1.24326 -5.96033,-0.83749 -2.68119,-1.42656 -5.47437,-3.69963 -6.20707,-5.05127 -1.65595,-3.05482 -0.41811,-8.30058 2.97723,-12.61706 1.42121,-1.80678 2.58402,-4.45533 2.58402,-5.88568 0,-1.43035 2.1,-4.45983 4.66666,-6.73219 C 301.9,705.36858 304,702.73121 304,701.78012 c 0,-2.2358 -5.67923,-3.64423 -10.66988,-2.6461 -2.85993,0.57199 -4.36346,0.13938 -5.61762,-1.61637 -0.94187,-1.31856 -3.32668,-3.44497 -5.29956,-4.72535 l -3.58705,-2.32796 2.65929,-4.73465 c 4.07727,-7.25924 2.96289,-10.90927 -4.70215,-15.40129 -3.60266,-2.1113 -9.16663,-5.98263 -12.36438,-8.60294 -5.63398,-4.61662 -5.73051,-4.82272 -3.11636,-6.65374 1.82406,-1.27763 2.69771,-3.38335 2.69771,-6.50219 0,-4.03965 -0.6211,-4.89325 -5,-6.87171 -2.75,-1.24249 -5.97944,-3.06192 -7.17654,-4.04318 -2.93941,-2.40943 -8.49561,-0.86229 -11.08262,3.08598 l -2.06617,3.15339 -7.004,-3.46921 c -8.66346,-4.29116 -8.49363,-4.13513 -6.58178,-6.04698 2.98509,-2.9851 1.5121,-5.72017 -5.22999,-9.71111 -8.24859,-4.88271 -18.01711,-12.66667 -15.89609,-12.66667 0.85165,0 3.60842,-1.57121 6.12615,-3.49159 3.31083,-2.52529 4.57771,-4.5342 4.57771,-7.25898 0,-2.07207 1.44859,-5.45085 3.21909,-7.50841 2.99586,-3.48159 3.51678,-3.62881 7.51164,-2.12287 2.86219,1.07895 5.08953,1.19162 6.68432,0.33811 1.31547,-0.70402 3.23469,-0.95657 4.26493,-0.56123 1.03025,0.39534 4.41785,0.14705 7.52801,-0.55176 4.89795,-1.10049 6.70658,-0.7958 13.51268,2.27642 4.72317,2.13201 7.87542,4.39083 7.90192,5.66232 0.0242,1.16344 4.38198,4.93618 9.68386,8.38387 l 9.63978,6.26853 9.36022,-0.86513 c 9.94332,-0.91902 17.56808,-4.21196 17.04167,-7.35986 -0.1752,-1.04769 1.50173,-2.71062 3.72651,-3.6954 6.53339,-2.89196 8.27271,-6.68119 6.56484,-14.30202 -1.56291,-6.97404 -0.6113,-10.1941 4.73408,-16.01909 l 2.70689,-2.94976 14.62644,3.04431 c 8.04455,1.67436 17.47645,3.8441 20.95978,4.82163 5.17858,1.45326 7.48759,1.46861 12.66386,0.0842 6.11564,-1.63568 6.43029,-1.57718 9.26938,1.72346 1.67862,1.95152 4.35133,3.41662 6.23274,3.41662 3.36278,0 4.43235,1.98489 6.82147,12.65921 1.41512,6.32263 3.01143,7.34079 11.50915,7.34079 6.0771,0 7.83674,0.44908 7.83674,2 0,1.1 -0.91883,2 -2.04185,2 -2.80856,0 -3.79892,3.22717 -2.01391,6.56248 2.05668,3.84295 4.97889,3.49164 15.5619,-1.87087 5.03829,-2.55295 9.9378,-4.65295 10.8878,-4.66667 0.95,-0.0137 3.2999,-1.59757 5.222,-3.51967 3.04581,-3.0458 4.89783,-3.58227 14.4173,-4.17617 10.64945,-0.66439 10.94216,-0.60201 11.70579,2.49474 0.43077,1.74689 2.95885,13.07616 5.61794,25.17616 3.15866,14.37324 5.67904,22.86472 7.27024,24.49433 2.25017,2.30451 2.28181,2.86257 0.41574,7.33334 -1.11088,2.66145 -3.44999,6.27082 -5.19803,8.02082 -1.74804,1.75 -3.17826,3.63323 -3.17826,4.18495 0,0.55172 -2.10237,1.39753 -4.67193,1.87958 -6.44238,1.2086 -9.99473,5.38815 -9.99473,11.75939 0,2.84327 0.63169,6.3499 1.40375,7.79251 1.00978,1.88679 0.9336,3.92314 -0.27144,7.2556 l -1.67519,4.63265 -6.72856,-0.8572 c -3.70071,-0.47147 -6.92646,-1.02383 -7.16834,-1.22748 -0.24188,-0.20364 0.95812,-2.80035 2.66666,-5.77045 3.91684,-6.80895 3.18149,-7.62914 -12.01421,-13.40057 -8.02842,-3.04925 -11.5904,-3.83386 -12.80998,-2.8217 C 423.40991,680.81629 412,699.84971 412,702.07893 c 0,1.10387 1.05,2.45727 2.33333,3.00753 5.66049,2.42711 10.93629,6.44571 12.96013,9.87181 1.75245,2.96665 3.1757,3.72007 7.11525,3.76656 14.80796,0.17476 32.70037,2.47953 34.68926,4.46843 2.99522,2.99521 0.32238,5.66076 -3.58133,3.57156 -3.12118,-1.67041 -30.12107,-4.16811 -54.1859,-5.01262 l -16.00259,-0.56159 -4.49295,4.63556 c -3.84131,3.96322 -4.92676,4.4379 -7.48392,3.27278 -5.28098,-2.40617 -16.79971,0.8748 -20.82385,5.93143 -4.82153,6.05862 -6.06176,8.82257 -6.89449,15.36498 -0.59243,4.65448 -1.90755,6.82602 -7.01373,11.58112 -5.29189,4.92804 -6.14851,6.39459 -5.42317,9.28459 0.72363,2.88318 -0.1764,4.44297 -5.62722,9.75222 -5.06592,4.93433 -6.6836,7.56259 -7.37782,11.98676 -1.04617,6.66717 -3.14343,7.13005 -10.05484,2.21915 z"
       id="Central York"
       transform="translate(2.0110496e-8)" />
    <text
       xml:space="preserve"
       style="font-weight:bold;font-size:16.5254px;font-family:sans-serif;-inkscape-font-specification:'sans-serif Bold';text-align:center;writing-mode:lr-tb;direction:ltr;text-anchor:middle;fill:#ffffff;stroke:#ffdd55;stroke-width:1.90678;stroke-dasharray:none;stroke-opacity:1"
       x="350.30753"
       y="653.13336"
       id="text21"
       inkscape:label="Central York Label"><tspan
         sodipodi:role="line"
         id="tspan21"
         style="font-size:16.5254px;fill:#ffffff;fill-opacity:1;stroke:none;stroke-width:1.90678"
         x="350.30753"
         y="653.13336">Central York</tspan></text>
  </g>
  <g
     id="g23">
    <path
       style="fill:#000000"
       d="m 828,756.71515 c -2.56667,-0.97001 -6.46667,-2.72404 -8.66667,-3.89783 -2.2,-1.1738 -5.05,-2.13787 -6.33333,-2.14239 -1.28333,-0.005 -2.33333,-0.51169 -2.33333,-1.12704 0,-0.61535 -2.39312,-2.26535 -5.31804,-3.66667 -2.92492,-1.40131 -5.32492,-3.1847 -5.33333,-3.96309 -0.008,-0.77839 -1.0653,-2.60097 -2.34863,-4.05019 -5.68197,-6.41641 -8.97987,-12.33809 -11.75793,-21.11245 l -2.98314,-9.42211 -14.33034,-0.89964 c -16.35757,-1.02691 -17.04377,-0.67887 -21.48944,10.89964 -2.31433,6.02755 -11.82455,18.66667 -14.04561,18.66667 -0.65396,0 -3.44302,1.08901 -6.19789,2.42002 -6.44911,3.11587 -9.06804,2.44333 -6.39164,-1.64136 1.94584,-2.96974 2.85694,-16.77866 1.10704,-16.77866 -0.51495,0 -1.70386,-1.22912 -2.64203,-2.73136 -1.47192,-2.35693 -1.13864,-3.88334 2.43114,-11.1346 3.14662,-6.39169 4.40637,-11.24354 5.26261,-20.26864 1.48997,-15.70484 2.52265,-19.55359 4.99226,-18.60591 5.15979,1.97999 8.73558,2.3198 9.60517,0.91277 0.62435,-1.01022 2.83936,0.10323 6.58733,3.31136 l 5.64669,4.83336 9.51512,-5.82516 c 6.50712,-3.98367 11.45641,-8.35418 15.65596,-13.82516 4.17064,-5.4333 8.176,-8.98019 12.48409,-11.05509 3.48879,-1.6803 6.69463,-3.97078 7.12409,-5.08995 1.09222,-2.84626 -2.05931,-8.21389 -4.70755,-8.0178 -1.20959,0.0896 -2.04927,-0.58716 -1.86593,-1.50383 0.18333,-0.91667 -0.20248,-1.66667 -0.85735,-1.66667 -3.21504,0 -2.00813,-4.38193 3.3128,-12.02778 5.99738,-8.61789 7.91979,-17.21953 4.34256,-19.43039 -1.11498,-0.68909 -1.02372,-1.34946 0.33333,-2.41202 1.02776,-0.80473 1.90805,-3.56314 1.9562,-6.12981 0.0837,-4.46227 1.00397,-12.35431 2.66764,-22.87735 0.70234,-4.44241 1.56508,-5.27471 9.67463,-9.33333 4.89693,-2.45079 9.08768,-4.85847 9.31277,-5.3504 0.22509,-0.49193 2.14906,0.10409 4.2755,1.3245 4.70244,2.69883 5.91898,1.72277 8.11239,-6.50882 2.18606,-8.20402 0.90252,-13.25199 -3.12491,-12.2898 -2.78663,0.66574 -2.84946,0.55268 -0.86255,-1.5521 1.17865,-1.24858 4.5619,-2.45056 7.51832,-2.67106 7.19419,-0.53656 8.09838,-1.27319 9.78511,-7.9718 l 1.44498,-5.73855 8.88762,-0.8395 c 4.88819,-0.46173 11.01262,-0.84377 13.60984,-0.84898 3.50863,-0.007 5.92793,-1.14674 9.41381,-4.43473 2.58037,-2.43388 4.50435,-4.98696 4.2755,-5.6735 -0.22885,-0.68655 1.23494,-1.99769 3.25286,-2.91365 7.96223,-3.61414 21.36535,-18.14407 30.245,-32.7877 4.8165,-7.94302 8.75728,-14.67685 8.75728,-14.96406 0,-0.28721 2.4,-4.44334 5.33333,-9.23584 2.93334,-4.7925 5.34252,-9.15307 5.35375,-9.69016 0.0112,-0.53708 0.5655,-1.83793 1.23172,-2.89078 0.93493,-1.47751 1.63725,-1.56074 3.07826,-0.36481 1.34795,1.1187 14.81292,1.50563 48.43496,1.39184 25.61238,-0.0867 51.84998,-0.0685 58.30568,0.0404 6.4558,0.10889 12.9058,-0.42713 14.3334,-1.19115 1.7835,-0.9545 2.5956,-0.95728 2.5956,-0.009 0,2.30945 3.2578,1.54156 4.949,-1.16652 0.8748,-1.40072 3.4122,-2.94688 5.6388,-3.43592 2.2265,-0.48903 4.4182,-1.48767 4.8703,-2.2192 0.6252,-1.01166 4.5419,4.32417 4.5419,6.18762 0,0.7638 -8.8593,2.3312 -11.7373,2.07658 -1.6888,-0.14941 -3.8356,0.36321 -4.7705,1.13917 -0.935,0.77596 -5.5532,2.17307 -10.2628,3.10468 -7.1664,1.41762 -8.6307,2.17102 -8.9792,4.62011 -0.2805,1.97111 -1.0681,2.6762 -2.4129,2.16013 -2.4374,-0.93532 -10.0929,6.03975 -8.9095,8.11763 0.4582,0.80444 0.3786,1.05439 -0.1768,0.55543 -0.5554,-0.49896 -3.5016,0.49098 -6.5471,2.19986 -6.0938,3.41938 -6.1716,3.68252 -7.9645,26.96731 -0.6288,8.1662 -0.3558,10.07994 1.8346,12.86469 3.2047,4.07403 14.9692,7.32927 17.8494,4.93892 1.5184,-1.26023 1.7337,-1.04055 1.1537,1.17735 -0.466,1.78215 0.053,3.02062 1.4984,3.57525 1.9883,0.763 1.9517,1.03043 -0.3631,2.65176 -1.4159,0.99175 -2.9266,3.20632 -3.357,4.92127 -0.5438,2.16669 -4.4709,5.28301 -12.8706,10.21341 -20.2699,11.89785 -22.3379,13.72923 -23.3846,20.70904 -0.5025,3.35079 -2.2159,8.02645 -3.8076,10.39035 l -2.8941,4.298 -18.33902,0.37132 c -15.37484,0.31131 -18.47168,0.717 -19.1597,2.50996 -0.45137,1.17624 -0.11148,3.27421 0.7553,4.66216 1.409,2.25616 1.24423,2.44027 -1.55517,1.73766 -3.60615,-0.90508 -6.73136,1.98765 -6.03785,5.58871 0.24692,1.28219 -0.96406,3.74428 -2.69109,5.47131 -2.47781,2.47781 -2.97111,4.04055 -2.33902,7.40989 0.72243,3.85089 0.0815,4.97556 -6.53214,11.46243 -4.03325,3.95592 -7.33318,7.78509 -7.33318,8.50925 0,0.72416 -0.99748,2.04604 -2.21664,2.93751 -2.84693,2.08173 -1.42588,6.00647 2.1748,6.00647 1.48968,0 2.70851,0.77952 2.70851,1.73226 0,1.19672 -1.452,1.56276 -4.69659,1.18397 -6.53163,-0.76253 -11.89182,1.8136 -14.72676,7.07777 -1.9257,3.57581 -2.08039,4.86076 -0.7746,6.43415 1.33623,1.61006 0.98648,2.47351 -1.93168,4.76893 -1.95983,1.54161 -4.40968,2.80292 -5.44412,2.80292 -1.03444,0 -3.24062,1.35 -4.90263,3 -4.30203,4.27094 -8.99999,6.48294 -12.8385,6.04493 -2.36947,-0.27038 -3.6955,0.47733 -4.6495,2.62174 -0.73405,1.65 -2.12348,3 -3.08763,3 -1.67869,0 -12.21742,5.21163 -13.61092,6.7309 -1.99763,2.17792 -9.34237,6.60243 -10.96011,6.60243 -3.45588,0 -11.19027,10.49598 -12.46854,16.92047 -0.37423,1.8809 -3.12551,10.89666 -4.19482,13.7462 -0.41279,1.1 -0.91698,2.9 -1.12044,4 -1.46356,7.91284 -2.51008,10.55474 -5.82726,14.71072 -2.97615,3.72872 -4.06827,7.00169 -5.23895,15.7005 -0.81345,6.04437 -1.10431,14.57455 -0.64636,18.95594 0.45794,4.3814 0.59715,7.9239 0.30935,7.87223 -0.2878,-0.0517 -2.62327,-0.8876 -5.18994,-1.85762 z"
       id="Grand Lake"
       transform="translate(2.0110496e-8)" />
    <text
       xml:space="preserve"
       style="font-weight:bold;font-size:16.5254px;font-family:sans-serif;-inkscape-font-specification:'sans-serif Bold';text-align:center;writing-mode:lr-tb;direction:ltr;text-anchor:middle;fill:#ffffff;fill-opacity:1;stroke:none;stroke-width:1.90678;stroke-dasharray:none;stroke-opacity:1"
       x="896.07916"
       y="555.92725"
       id="text22"
       inkscape:label="Grand Lake Label"><tspan
         sodipodi:role="line"
         id="tspan22"
         style="font-size:16.5254px;stroke-width:1.90678"
         x="896.07916"
         y="555.92725">Grand</tspan><tspan
         sodipodi:role="line"
         style="font-size:16.5254px;stroke-width:1.90678"
         x="896.07916"
         y="576.58398"
         id="tspan23">Lake</tspan></text>
  </g>
  <g
     id="g24">
    <path
       style="fill:#000000"
       d="m 546.76324,718.7324 c -6.66849,-4.4167 -9.4566,-8.06569 -6.16283,-8.06569 1.59062,0 2.06626,-1.53462 2.06626,-6.66666 0,-7.62954 -2.87256,-11.57452 -9.375,-12.87501 -3.45927,-0.69185 -3.95834,-1.3643 -3.95834,-5.33351 0,-2.79945 -0.76432,-4.83514 -1.99234,-5.30638 -1.09579,-0.42049 -1.6748,-1.27833 -1.28669,-1.90631 0.80604,-1.30418 -5.63468,-7.38584 -10.48909,-9.90433 -1.79658,-0.93208 -4.02797,-1.21251 -4.97767,-0.62556 -1.05104,0.64957 -3.31781,-0.1163 -5.8211,-1.96677 -2.25488,-1.66683 -6.60246,-4.4011 -9.66131,-6.07614 -4.65998,-2.55183 -5.33129,-3.41421 -4.14119,-5.31987 1.09414,-1.75199 0.77241,-3.16373 -1.40086,-6.1469 -1.72095,-2.36227 -4.14005,-10.11252 -6.20288,-19.87256 -5.32735,-25.20583 -6.95439,-31.46099 -8.61474,-33.11938 -0.96928,-0.96813 -6.54939,-1.54729 -14.90796,-1.54729 -11.3391,0 -13.55633,0.35296 -14.6651,2.33455 -0.71845,1.28401 -3.52615,3.47277 -6.23934,4.86392 -2.71318,1.39115 -7.88475,4.0906 -11.49236,5.99878 -7.35326,3.88936 -12.66685,4.84655 -7.73737,1.39381 3.22386,-2.25809 3.90907,-7.11199 1.36334,-9.65773 -0.88,-0.88 -4.99474,-1.6 -9.14386,-1.6 h -7.54385 l -2.52281,-9.66667 c -2.43746,-9.3396 -2.6703,-9.68086 -6.88195,-10.0864 -2.39752,-0.23085 -5.82024,-1.88085 -7.60606,-3.66666 -3.62228,-3.62229 -4.73918,-3.81476 -11.2691,-1.94201 -3.64832,1.04633 -7.78667,0.51787 -20.88252,-2.66667 -8.98288,-2.18437 -17.58141,-3.97159 -19.10785,-3.97159 -1.52643,0 -2.77503,-0.15 -2.77466,-0.33333 0.003,-1.38492 5.80345,-15.14567 7.43247,-17.63188 1.39505,-2.12912 1.9131,-5.58074 1.63717,-10.90808 -0.38633,-7.45893 -0.23199,-7.88682 3.59635,-9.97079 3.71918,-2.02455 3.99764,-2.7032 3.96642,-9.66667 l -0.0336,-7.48925 h 7.09501 7.09501 l -0.30971,-5.98313 c -0.23144,-4.47103 0.38324,-6.74556 2.43219,-9 1.82401,-2.00693 3.02138,-5.69499 3.57676,-11.01688 0.74802,-7.1678 1.39017,-8.50429 6.17304,-12.84782 l 5.33818,-4.84783 V 445.9955 426.3533 l -9.03127,-10.17664 c -4.9672,-5.59715 -11.4172,-13.16808 -14.33333,-16.82428 -2.91614,-3.65621 -9.13144,-10.71331 -13.81178,-15.68244 -4.68034,-4.96914 -9.48034,-10.9578 -10.66667,-13.30815 -1.18632,-2.35034 -5.30252,-6.82131 -9.1471,-9.93549 l -6.99016,-5.66213 5.53629,-1.49076 c 3.04495,-0.81993 6.84902,-2.35091 8.45348,-3.40219 2.84236,-1.86239 2.9772,-1.68978 5.25576,6.7279 2.1203,7.83305 2.87694,8.95485 8.10743,12.02012 6.60839,3.87277 15.76685,4.48036 24.12638,1.60059 7.44346,-2.5642 21.19132,-0.11982 27.04936,4.8094 2.37759,2.0006 5.02685,3.63736 5.88725,3.63723 0.8604,-1.3e-4 6.96436,2.64416 13.56436,5.8762 26.26329,12.8612 28.08319,13.30992 29.65196,7.31093 1.13319,-4.33331 9.85846,-2.3767 17.55461,3.93654 10.97192,9.00041 19.18691,13.70293 23.20228,13.28175 2.64069,-0.27699 4.4262,0.49991 6.02735,2.6226 3.01804,4.00112 23.51312,11.40902 28.73765,10.38717 5.69947,-1.11475 14.49536,1.82398 13.40709,4.47933 -0.47465,1.15814 -1.78243,4.80571 -2.90616,8.10571 -1.12374,3.3 -2.7477,6.90001 -3.6088,8.00001 -2.80301,3.58065 -6.33587,12.9466 -5.84813,15.50391 0.26844,1.40746 1.82653,2.6882 3.57253,2.93658 2.93895,0.41809 3.0739,0.89286 2.65304,9.33333 l -0.44342,8.89284 9.006,0.39439 9.00599,0.39439 -0.85539,5.34932 c -0.75323,4.71045 -0.51509,5.43831 1.99401,6.09445 1.56716,0.40983 2.84939,1.28261 2.84939,1.93953 0,0.65691 3.43331,3.43693 7.62958,6.17782 4.19627,2.74089 8.19068,5.3772 8.87647,5.85846 0.68579,0.48126 1.13501,4.29874 0.99827,8.48328 -0.27004,8.26378 1.24992,11.3035 5.65894,11.31715 1.56021,0.005 4.63674,1.20088 6.83674,2.65788 2.2,1.45701 5.05,2.65305 6.33334,2.65789 1.87562,0.007 2.33333,1.18704 2.33333,6.01532 0,3.77329 1.28383,8.60673 3.45299,13 3.21671,6.51494 3.45985,8.31937 3.55345,26.37109 0.0816,15.74414 -0.30484,19.99622 -2.06114,22.67667 -1.18889,1.81447 -2.12965,4.49454 -2.09058,5.95571 0.0391,1.46116 -0.69891,7.53444 -1.63994,13.49617 -2.02479,12.8277 -0.18758,24.30891 4.66666,29.16315 l 2.93344,2.93344 -5.0741,7.61951 c -2.79076,4.19073 -5.07411,7.89946 -5.07411,8.24163 0,0.34217 -2.78638,4.95277 -6.19196,10.24578 -8.60185,13.36917 -11.84387,18.62952 -12.91607,20.95699 -0.50674,1.1 -2.10813,3.8 -3.55864,6 -1.45051,2.2 -3.03264,4.9 -3.51583,6 -0.48319,1.1 -2.19645,3.8 -3.80724,6 -1.6108,2.2 -3.17207,4.74452 -3.46949,5.6545 -0.36907,1.12918 -2.41516,0.41305 -6.4442,-2.25548 z"
       id="Nashwaak"
       transform="translate(2.0110496e-8)" />
    <text
       xml:space="preserve"
       style="font-weight:bold;font-size:16.5254px;font-family:sans-serif;-inkscape-font-specification:'sans-serif Bold';text-align:center;writing-mode:lr-tb;direction:ltr;text-anchor:middle;fill:#ffffff;fill-opacity:1;stroke:none;stroke-width:1.90678;stroke-dasharray:none;stroke-opacity:1"
       x="467.76486"
       y="524.53778"
       id="text24"
       inkscape:label="Nashwaak Label"><tspan
         sodipodi:role="line"
         id="tspan24"
         style="font-size:16.5254px;stroke-width:1.90678"
         x="467.76486"
         y="524.53778">Nashwaak</tspan></text>
  </g>
  <g
     id="g25">
    <path
       style="fill:#000000"
       d="m 475.67879,808.29742 c -1.85053,-1.99688 -6.43529,-6.45466 -10.18836,-9.90616 -3.75307,-3.45151 -6.82376,-6.80851 -6.82376,-7.46002 0,-1.87473 -4.66309,-5.59786 -7.01113,-5.59786 -1.78793,0 -1.60903,-0.94014 1.10194,-5.79059 6.53837,-11.69842 6.29779,-11.73248 21.27608,3.01244 8.71176,8.57603 13.14077,13.89669 12.83884,15.42358 -0.25351,1.28207 -2.11875,4.94514 -4.14497,8.14017 l -3.68405,5.80915 z"
       id="New Maryland"
       transform="translate(2.0110496e-8)" />
    <text
       xml:space="preserve"
       style="font-weight:bold;font-size:16.5254px;font-family:sans-serif;-inkscape-font-specification:'sans-serif Bold';text-align:center;writing-mode:lr-tb;direction:ltr;text-anchor:middle;fill:#ffdd55;stroke-width:0.95339"
       x="636.87775"
       y="784.97437"
       id="text11"
       inkscape:label="New Maryland Label"><tspan
         sodipodi:role="line"
         id="tspan11"
         style="font-size:16.5254px;fill:#ffffff;stroke-width:0.95339"
         x="636.87775"
         y="784.97437">New Maryland</tspan></text>
    <path
       style="fill:none;fill-opacity:1;stroke:#ffffff;stroke-width:1.90678;stroke-dasharray:none;stroke-opacity:1"
       d="m 469.78998,787.8043 88.09302,-27.33922 12.15076,18.22615"
       id="path25"
       inkscape:label="New Maryland Line" />
  </g>
</svg>
